<svg width="23" height="16" viewBox="0 0 23 16" fill="none" xmlns="http://www.w3.org/2000/svg">
<path d="M21.6371 3.68972L11.939 0.14489C11.4106 -0.0482763 10.8404 -0.0482763 10.3122 0.14489L0.613822 3.68972C-0.204607 3.98878 -0.204607 5.27641 0.613822 5.57547L2.30457 6.19344C1.9336 6.73902 1.70553 7.40455 1.68293 8.13337C1.34811 8.3617 1.11239 8.77367 1.11239 9.26548C1.11239 9.71138 1.30987 10.0865 1.59427 10.3265L0.706652 15.0783C0.629468 15.4915 0.893701 15.8836 1.24937 15.8836H3.20019C3.55621 15.8836 3.82044 15.4915 3.74326 15.0783L2.85564 10.3265C3.14004 10.0865 3.33752 9.71138 3.33752 9.26548C3.33752 8.78691 3.11257 8.38652 2.79306 8.15405C2.81948 7.53278 3.0865 6.98347 3.5124 6.6352L10.3119 9.12071C10.6269 9.2357 11.2312 9.37923 11.9387 9.12071L21.6371 5.57588C22.4559 5.27641 22.4559 3.98919 21.6371 3.68972ZM12.2655 10.386C11.2736 10.7484 10.4284 10.5482 9.98509 10.386L4.94309 8.54328L4.45008 13.2364C4.45008 14.6985 7.43871 15.8836 11.1255 15.8836C14.8122 15.8836 17.8008 14.6985 17.8008 13.2364L17.3078 8.54287L12.2655 10.386Z" fill="#2EC5B6"/>
</svg>
