<svg width="227" height="155" viewBox="0 0 227 155" fill="none" xmlns="http://www.w3.org/2000/svg">
<path d="M318.419 114.482L246.068 89.0398C242.126 87.6534 237.872 87.6534 233.932 89.0398L161.579 114.482C155.474 116.628 155.474 125.87 161.579 128.016L174.193 132.452C171.425 136.367 169.724 141.144 169.555 146.375C167.057 148.014 165.299 150.97 165.299 154.5C165.299 157.701 166.772 160.393 168.894 162.115L162.272 196.22C161.696 199.186 163.667 202 166.321 202H180.874C183.53 202 185.502 199.186 184.926 196.22L178.304 162.115C180.426 160.393 181.899 157.701 181.899 154.5C181.899 151.065 180.221 148.192 177.837 146.523C178.034 142.064 180.026 138.122 183.203 135.622L233.93 153.461C236.28 154.287 240.788 155.317 246.066 153.461L318.419 128.019C324.527 125.87 324.527 116.631 318.419 114.482ZM248.504 162.543C241.104 165.143 234.799 163.706 231.491 162.543L193.877 149.317L190.199 183C190.199 193.495 212.495 202 239.999 202C267.503 202 289.799 193.495 289.799 183L286.121 149.314L248.504 162.543Z" fill="#2EC5B6"/>
</svg>
