<svg width="54" height="37" viewBox="0 0 54 37" fill="none" xmlns="http://www.w3.org/2000/svg">
<path d="M151.427 63.8941L117.247 50.5392C115.385 49.8114 113.375 49.8114 111.514 50.5392L77.333 63.8941C74.4485 65.0208 74.4485 69.8719 77.333 70.9986L83.2918 73.3267C81.9843 75.3822 81.1805 77.8895 81.1009 80.6353C79.9209 81.4955 79.0901 83.0476 79.0901 84.9005C79.0901 86.5804 79.7861 87.9938 80.7884 88.8976L77.6601 106.8C77.3881 108.357 78.3194 109.834 79.5729 109.834H86.4483C87.703 109.834 88.6343 108.357 88.3622 106.8L85.2339 88.8976C86.2363 87.9938 86.9323 86.5804 86.9323 84.9005C86.9323 83.0975 86.1395 81.589 85.0134 80.7132C85.1065 78.3726 86.0476 76.3031 87.5486 74.991L111.513 84.3551C112.623 84.7883 114.752 85.329 117.246 84.3551L151.427 71.0001C154.312 69.8719 154.312 65.0223 151.427 63.8941ZM118.398 89.122C114.902 90.4871 111.923 89.7329 110.361 89.122L92.5909 82.1796L90.8533 99.8605C90.8533 105.369 101.386 109.834 114.38 109.834C127.373 109.834 137.906 105.369 137.906 99.8605L136.169 82.1781L118.398 89.122Z" fill="#2EC5B6"/>
<line x1="5" y1="4" x2="215" y2="4" stroke="#011628" stroke-width="8"/>
<line y1="-4" x2="72.2832" y2="-4" transform="matrix(-0.00326783 -0.999995 0.99999 -0.00456178 13.2362 79.2828)" stroke="#011628" stroke-width="8"/>
<line x1="211.005" y1="161.496" x2="211.005" y2="8.00003" stroke="#011628" stroke-width="8"/>
<line x1="161.037" y1="157" x2="215.042" y2="157.496" stroke="#011628" stroke-width="8"/>
<path d="M16.502 145.386C17.538 145.386 18.5 145.583 19.388 145.978C20.3007 146.373 21.0777 146.928 21.719 147.643C22.385 148.334 22.8907 149.172 23.236 150.159C23.606 151.121 23.791 152.182 23.791 153.341C23.791 154.426 23.6183 155.438 23.273 156.375C22.9523 157.312 22.4837 158.126 21.867 158.817C21.2503 159.483 20.5227 160.013 19.684 160.408C18.8453 160.803 17.908 161 16.872 161H5.402V156.338H15.54C16.0333 156.338 16.502 156.276 16.946 156.153C17.4147 156.03 17.8093 155.845 18.13 155.598C18.4507 155.351 18.7097 155.043 18.907 154.673C19.1043 154.303 19.203 153.859 19.203 153.341C19.203 152.379 18.8823 151.627 18.241 151.084C17.6243 150.541 16.8473 150.27 15.91 150.27H12.913C11.655 150.27 10.508 150.134 9.472 149.863C8.436 149.592 7.56033 149.16 6.845 148.568C6.12967 147.976 5.57467 147.211 5.18 146.274C4.78533 145.337 4.588 144.214 4.588 142.907C4.588 141.994 4.74833 141.106 5.069 140.243C5.38967 139.38 5.83367 138.627 6.401 137.986C6.96833 137.32 7.659 136.79 8.473 136.395C9.287 136 10.1873 135.803 11.174 135.803H21.571V140.724H13.098C12.6047 140.724 12.1483 140.761 11.729 140.835C11.3097 140.884 10.9397 140.995 10.619 141.168C10.2983 141.316 10.0517 141.55 9.879 141.871C9.70633 142.192 9.62 142.623 9.62 143.166C9.62 143.783 9.82967 144.313 10.249 144.757C10.6683 145.176 11.2357 145.386 11.951 145.386H16.502ZM44.3104 156.634C45.0257 156.634 45.5437 156.424 45.8644 156.005C46.2097 155.561 46.4687 155.031 46.6414 154.414H51.3034C51.2047 155.327 50.9704 156.19 50.6004 157.004C50.2304 157.793 49.7371 158.484 49.1204 159.076C48.5284 159.668 47.8254 160.137 47.0114 160.482C46.1974 160.827 45.3094 161 44.3474 161H41.2024C40.1911 161 39.2414 160.815 38.3534 160.445C37.4654 160.05 36.6884 159.52 36.0224 158.854C35.3564 158.188 34.8261 157.411 34.4314 156.523C34.0614 155.635 33.8764 154.685 33.8764 153.674V143.166C33.8764 142.155 34.0614 141.205 34.4314 140.317C34.8261 139.404 35.3564 138.615 36.0224 137.949C36.6884 137.283 37.4654 136.765 38.3534 136.395C39.2414 136 40.1911 135.803 41.2024 135.803H44.3474C45.3094 135.803 46.1974 135.976 47.0114 136.321C47.8254 136.666 48.5284 137.147 49.1204 137.764C49.7371 138.356 50.2304 139.059 50.6004 139.873C50.9704 140.687 51.2047 141.563 51.3034 142.5H46.6784C46.5304 141.859 46.2837 141.316 45.9384 140.872C45.5931 140.428 45.0504 140.206 44.3104 140.206H41.2024C40.3391 140.206 39.6484 140.514 39.1304 141.131C38.6371 141.748 38.3904 142.5 38.3904 143.388V153.415C38.3904 154.303 38.6371 155.068 39.1304 155.709C39.6484 156.326 40.3391 156.634 41.2024 156.634H44.3104ZM79.7408 153.674C79.7408 154.685 79.5558 155.635 79.1858 156.523C78.8158 157.411 78.2978 158.188 77.6318 158.854C76.9658 159.52 76.1888 160.05 75.3008 160.445C74.4128 160.815 73.4631 161 72.4518 161H69.6028C68.5914 161 67.6418 160.815 66.7538 160.445C65.8658 160.05 65.0764 159.52 64.3858 158.854C63.7198 158.188 63.1894 157.411 62.7948 156.523C62.4248 155.635 62.2398 154.685 62.2398 153.674V135.803H66.7908V153.415C66.7908 153.859 66.8648 154.278 67.0128 154.673C67.1854 155.043 67.4074 155.376 67.6788 155.672C67.9748 155.968 68.3078 156.202 68.6778 156.375C69.0724 156.548 69.4794 156.634 69.8988 156.634H72.1188C72.5381 156.634 72.9328 156.548 73.3028 156.375C73.6974 156.202 74.0304 155.968 74.3018 155.672C74.5731 155.376 74.7951 155.043 74.9678 154.673C75.1404 154.278 75.2268 153.859 75.2268 153.415V135.803H79.7408V153.674ZM100.815 135.803C101.827 135.803 102.776 136 103.664 136.395C104.552 136.765 105.329 137.283 105.995 137.949C106.661 138.615 107.179 139.404 107.549 140.317C107.944 141.205 108.141 142.155 108.141 143.166V153.674C108.141 154.685 107.944 155.635 107.549 156.523C107.179 157.411 106.661 158.188 105.995 158.854C105.329 159.52 104.552 160.05 103.664 160.445C102.776 160.815 101.827 161 100.815 161H97.9662C96.9548 161 96.0052 160.815 95.1172 160.445C94.2292 160.05 93.4522 159.52 92.7862 158.854C92.1202 158.188 91.5898 157.411 91.1952 156.523C90.8252 155.635 90.6402 154.685 90.6402 153.674V143.166C90.6402 142.155 90.8252 141.205 91.1952 140.317C91.5898 139.404 92.1202 138.615 92.7862 137.949C93.4522 137.283 94.2292 136.765 95.1172 136.395C96.0052 136 96.9548 135.803 97.9662 135.803H100.815ZM103.627 143.388C103.627 142.5 103.368 141.748 102.85 141.131C102.357 140.514 101.679 140.206 100.815 140.206H98.0032C97.1152 140.206 96.4245 140.514 95.9312 141.131C95.4378 141.748 95.1912 142.5 95.1912 143.388V153.415C95.1912 154.303 95.4378 155.068 95.9312 155.709C96.4245 156.326 97.1152 156.634 98.0032 156.634H100.815C101.679 156.634 102.357 156.326 102.85 155.709C103.368 155.068 103.627 154.303 103.627 153.415V143.388ZM123.185 156.745H136.838V161H118.745V135.803H123.185V156.745ZM159.614 157.152H152.843L151.918 161H147.441L153.916 135.803H158.726L164.942 161H160.502L159.614 157.152ZM153.731 153.415H158.763L156.432 143.129H156.173L153.731 153.415Z" fill="#2EC5B6"/>
</svg>
