<svg width="61" height="48" viewBox="0 0 61 48" fill="none" xmlns="http://www.w3.org/2000/svg">
<path d="M40.6371 18.6897L30.939 15.1449C30.4106 14.9517 29.8404 14.9517 29.3123 15.1449L19.6138 18.6897C18.7954 18.9888 18.7954 20.2764 19.6138 20.5755L21.3046 21.1934C20.9336 21.739 20.7055 22.4046 20.6829 23.1334C20.3481 23.3617 20.1124 23.7737 20.1124 24.2655C20.1124 24.7114 20.3099 25.0865 20.5943 25.3265L19.7067 30.0783C19.6295 30.4915 19.8937 30.8836 20.2494 30.8836H22.2002C22.5562 30.8836 22.8204 30.4915 22.7433 30.0783L21.8556 25.3265C22.14 25.0865 22.3375 24.7114 22.3375 24.2655C22.3375 23.7869 22.1126 23.3865 21.7931 23.1541C21.8195 22.5328 22.0865 21.9835 22.5124 21.6352L29.3119 24.1207C29.6269 24.2357 30.2312 24.3792 30.9387 24.1207L40.6371 20.5759C41.4559 20.2764 41.4559 18.9892 40.6371 18.6897ZM31.2655 25.386C30.2736 25.7484 29.4284 25.5482 28.9851 25.386L23.9431 23.5433L23.4501 28.2364C23.4501 29.6985 26.4387 30.8836 30.1255 30.8836C33.8122 30.8836 36.8009 29.6985 36.8009 28.2364L36.3078 23.5429L31.2655 25.386Z" fill="#2EC5B6"/>
<line x1="1" y1="3.00002" x2="60" y2="3.00002" stroke="#011628" stroke-width="6"/>
<line y1="-3" x2="19.1863" y2="-3" transform="matrix(-0.00349321 -0.999994 0.999991 -0.00426746 7.06703 24.1862)" stroke="#011628" stroke-width="6"/>
<line y1="-3" x2="40.6111" y2="-3" transform="matrix(3.74198e-05 -1 1 3.27469e-05 60.0038 45.8765)" stroke="#011628" stroke-width="6"/>
<line y1="-3" x2="15.324" y2="-3" transform="matrix(0.999963 0.00859674 -0.00982336 0.999952 44.6819 45.8765)" stroke="#011628" stroke-width="6"/>
<path d="M4.46 41.78C4.74 41.78 5 41.8333 5.24 41.94C5.48667 42.0467 5.69667 42.1967 5.87 42.39C6.05 42.5767 6.18667 42.8033 6.28 43.07C6.38 43.33 6.43 43.6167 6.43 43.93C6.43 44.2233 6.38333 44.4967 6.29 44.75C6.20333 45.0033 6.07667 45.2233 5.91 45.41C5.74333 45.59 5.54667 45.7333 5.32 45.84C5.09333 45.9467 4.84 46 4.56 46H1.46V44.74H4.2C4.33333 44.74 4.46 44.7233 4.58 44.69C4.70667 44.6567 4.81333 44.6067 4.9 44.54C4.98667 44.4733 5.05667 44.39 5.11 44.29C5.16333 44.19 5.19 44.07 5.19 43.93C5.19 43.67 5.10333 43.4667 4.93 43.32C4.76333 43.1733 4.55333 43.1 4.3 43.1H3.49C3.15 43.1 2.84 43.0633 2.56 42.99C2.28 42.9167 2.04333 42.8 1.85 42.64C1.65667 42.48 1.50667 42.2733 1.4 42.02C1.29333 41.7667 1.24 41.4633 1.24 41.11C1.24 40.8633 1.28333 40.6233 1.37 40.39C1.45667 40.1567 1.57667 39.9533 1.73 39.78C1.88333 39.6 2.07 39.4567 2.29 39.35C2.51 39.2433 2.75333 39.19 3.02 39.19H5.83V40.52H3.54C3.40667 40.52 3.28333 40.53 3.17 40.55C3.05667 40.5633 2.95667 40.5933 2.87 40.64C2.78333 40.68 2.71667 40.7433 2.67 40.83C2.62333 40.9167 2.6 41.0333 2.6 41.18C2.6 41.3467 2.65667 41.49 2.77 41.61C2.88333 41.7233 3.03667 41.78 3.23 41.78H4.46ZM11.9758 44.82C12.1691 44.82 12.3091 44.7633 12.3958 44.65C12.4891 44.53 12.5591 44.3867 12.6058 44.22H13.8658C13.8391 44.4667 13.7758 44.7 13.6758 44.92C13.5758 45.1333 13.4424 45.32 13.2758 45.48C13.1158 45.64 12.9258 45.7667 12.7058 45.86C12.4858 45.9533 12.2458 46 11.9858 46H11.1358C10.8624 46 10.6058 45.95 10.3658 45.85C10.1258 45.7433 9.91578 45.6 9.73578 45.42C9.55578 45.24 9.41245 45.03 9.30578 44.79C9.20578 44.55 9.15578 44.2933 9.15578 44.02V41.18C9.15578 40.9067 9.20578 40.65 9.30578 40.41C9.41245 40.1633 9.55578 39.95 9.73578 39.77C9.91578 39.59 10.1258 39.45 10.3658 39.35C10.6058 39.2433 10.8624 39.19 11.1358 39.19H11.9858C12.2458 39.19 12.4858 39.2367 12.7058 39.33C12.9258 39.4233 13.1158 39.5533 13.2758 39.72C13.4424 39.88 13.5758 40.07 13.6758 40.29C13.7758 40.51 13.8391 40.7467 13.8658 41H12.6158C12.5758 40.8267 12.5091 40.68 12.4158 40.56C12.3224 40.44 12.1758 40.38 11.9758 40.38H11.1358C10.9024 40.38 10.7158 40.4633 10.5758 40.63C10.4424 40.7967 10.3758 41 10.3758 41.24V43.95C10.3758 44.19 10.4424 44.3967 10.5758 44.57C10.7158 44.7367 10.9024 44.82 11.1358 44.82H11.9758ZM21.5516 44.02C21.5516 44.2933 21.5016 44.55 21.4016 44.79C21.3016 45.03 21.1616 45.24 20.9816 45.42C20.8016 45.6 20.5916 45.7433 20.3516 45.85C20.1116 45.95 19.8549 46 19.5816 46H18.8116C18.5382 46 18.2816 45.95 18.0416 45.85C17.8016 45.7433 17.5882 45.6 17.4016 45.42C17.2216 45.24 17.0782 45.03 16.9716 44.79C16.8716 44.55 16.8216 44.2933 16.8216 44.02V39.19H18.0516V43.95C18.0516 44.07 18.0716 44.1833 18.1116 44.29C18.1582 44.39 18.2182 44.48 18.2916 44.56C18.3716 44.64 18.4616 44.7033 18.5616 44.75C18.6682 44.7967 18.7782 44.82 18.8916 44.82H19.4916C19.6049 44.82 19.7116 44.7967 19.8116 44.75C19.9182 44.7033 20.0082 44.64 20.0816 44.56C20.1549 44.48 20.2149 44.39 20.2616 44.29C20.3082 44.1833 20.3316 44.07 20.3316 43.95V39.19H21.5516V44.02ZM27.2473 39.19C27.5207 39.19 27.7773 39.2433 28.0173 39.35C28.2573 39.45 28.4673 39.59 28.6473 39.77C28.8273 39.95 28.9673 40.1633 29.0673 40.41C29.174 40.65 29.2273 40.9067 29.2273 41.18V44.02C29.2273 44.2933 29.174 44.55 29.0673 44.79C28.9673 45.03 28.8273 45.24 28.6473 45.42C28.4673 45.6 28.2573 45.7433 28.0173 45.85C27.7773 45.95 27.5207 46 27.2473 46H26.4773C26.204 46 25.9473 45.95 25.7073 45.85C25.4673 45.7433 25.2573 45.6 25.0773 45.42C24.8973 45.24 24.754 45.03 24.6473 44.79C24.5473 44.55 24.4973 44.2933 24.4973 44.02V41.18C24.4973 40.9067 24.5473 40.65 24.6473 40.41C24.754 40.1633 24.8973 39.95 25.0773 39.77C25.2573 39.59 25.4673 39.45 25.7073 39.35C25.9473 39.2433 26.204 39.19 26.4773 39.19H27.2473ZM28.0073 41.24C28.0073 41 27.9373 40.7967 27.7973 40.63C27.664 40.4633 27.4807 40.38 27.2473 40.38H26.4873C26.2473 40.38 26.0607 40.4633 25.9273 40.63C25.794 40.7967 25.7273 41 25.7273 41.24V43.95C25.7273 44.19 25.794 44.3967 25.9273 44.57C26.0607 44.7367 26.2473 44.82 26.4873 44.82H27.2473C27.4807 44.82 27.664 44.7367 27.7973 44.57C27.9373 44.3967 28.0073 44.19 28.0073 43.95V41.24ZM33.2931 44.85H36.9831V46H32.0931V39.19H33.2931V44.85ZM43.1389 44.96H41.3089L41.0589 46H39.8489L41.5989 39.19H42.8989L44.5789 46H43.3789L43.1389 44.96ZM41.5489 43.95H42.9089L42.2789 41.17H42.2089L41.5489 43.95Z" fill="#2EC5B6"/>
</svg>
